<svg width="32" height="32" viewBox="0 0 32 32" fill="none" xmlns="http://www.w3.org/2000/svg">
<path d="M21.3508 27.7712C18.186 31.0381 13.8267 31.0269 10.6711 27.7456C7.44141 31.4336 2.79321 30.9067 0 26.718V28.5625C0 30.458 1.54199 32 3.4375 32H28.562C30.4575 32 31.9993 30.458 31.9993 28.5625V26.718C29.1824 30.9436 24.5479 31.3928 21.3508 27.7712Z" fill="#583FBC"/>
<path d="M5.72953 28.3381C7.20218 28.3381 8.49393 27.4736 9.47586 26.2524C7.70218 23.5977 6.89994 19.8132 8.96781 17.3806C7.93265 17.0276 6.71829 16.9756 5.72953 16.9756C4.55228 16.9756 3.05521 17.0488 1.92093 17.6174C0.438265 18.3611 -0.115934 19.7803 0.0198084 21.4331C0.25101 24.3757 2.57718 28.3381 5.72953 28.3381Z" fill="#583FBC"/>
<path d="M30.0791 17.6174C28.9446 17.0488 27.4478 16.9756 26.2703 16.9756C25.2935 16.9756 24.0959 17.0264 23.0691 17.3682C25.1514 19.8005 24.3533 23.6064 22.5498 26.2844C23.5291 27.4888 24.811 28.3381 26.2703 28.3381C29.5942 28.3381 31.9995 23.9326 31.9995 20.9624C31.9995 18.9937 30.9553 18.0569 30.0791 17.6174Z" fill="#583FBC"/>
<path d="M9.61523 20.9626C9.61523 24.0583 12.4185 28.3381 16.0239 28.3381C19.6289 28.3381 22.4326 24.0588 22.4326 20.9626C22.4326 16.9756 17.9417 16.9756 16.0239 16.9756C14.1062 16.9756 9.61523 16.9756 9.61523 20.9626Z" fill="#583FBC"/>
<path d="M28.5623 0H3.43774C1.54224 0 0.000488281 1.54199 0.000488281 3.4375V5.28198C2.82812 1.03979 7.4646 0.621338 10.6489 4.22876C13.8137 0.961914 18.1731 0.973145 21.3286 4.25439C24.4802 0.655762 29.1404 0.990967 31.9995 5.28198V3.4375C31.9995 1.54199 30.4578 0 28.5623 0Z" fill="#583FBC"/>
<path d="M5.72925 3.66187C2.40527 3.66187 0 8.06738 0 11.0376C0 13.0063 1.04443 13.9431 1.92065 14.3826C3.05493 14.9512 4.55176 15.0244 5.72925 15.0244C6.70679 15.0244 7.90356 14.9736 8.93042 14.6318C6.84839 12.1995 7.64648 8.39355 9.44995 5.71558C8.47046 4.51123 7.18872 3.66187 5.72925 3.66187Z" fill="#583FBC"/>
<path d="M26.2703 3.66187C24.7979 3.66187 23.5061 4.52637 22.5234 5.74756C24.2981 8.40356 25.1001 12.1868 23.0322 14.6194C24.0674 14.9724 25.2815 15.0244 26.2703 15.0244C27.4478 15.0244 28.9446 14.9512 30.0791 14.3826C31.5618 13.6389 32.1157 12.22 31.9802 10.5669C31.749 7.62427 29.4229 3.66187 26.2703 3.66187Z" fill="#583FBC"/>
<path d="M15.9761 3.66187C12.3882 3.66187 9.56738 7.92261 9.56738 11.0374C9.56738 15.0244 14.0586 15.0244 15.9761 15.0244C17.8938 15.0244 22.3848 15.0244 22.3848 11.0374C22.385 7.92114 19.5632 3.66187 15.9761 3.66187Z" fill="#583FBC"/>
</svg>
