<svg width="24" height="32" viewBox="0 0 24 32" fill="none" xmlns="http://www.w3.org/2000/svg">
<path d="M16.6087 18.8281C16.1729 16.6825 14.272 15.0625 11.9996 15.0625C9.72725 15.0625 7.82638 16.6824 7.39056 18.8281H16.6087Z" fill="#583FBC"/>
<path d="M20.1472 20.7031H3.08475C2.4915 20.7031 2.04763 21.2472 2.16625 21.8284C2.22956 22.1385 2.29112 22.4349 2.342 22.6703L2.4125 22.9971C3.10681 26.2153 3.56556 28.3413 4.23131 29.7161C4.99625 31.2956 6.11163 32 7.84775 32C8.56013 32 9.58888 31.9177 10.2952 31.2061C11.2066 30.2877 11.1958 28.8483 11.1778 26.4637C11.1751 26.1007 11.1722 25.7256 11.1721 25.3213C11.172 24.8758 11.5136 24.4914 11.9586 24.4697C12.4334 24.4467 12.8271 24.8264 12.8271 25.2962C12.8271 25.7102 12.8242 26.0933 12.8214 26.4637C12.8034 28.8484 12.7926 30.2878 13.7041 31.2061C14.4104 31.9177 15.4391 32 16.1515 32C17.8876 32 19.003 31.2956 19.7679 29.7161C20.4337 28.3413 20.8924 26.2153 21.5868 22.9971L21.6572 22.6706C21.7081 22.4351 21.7696 22.1386 21.8329 21.8284C21.9516 21.2472 21.5077 20.7031 20.9144 20.7031H20.1472Z" fill="#583FBC"/>
<path d="M2.75208 13.1719H21.2476C21.6055 13.1719 21.9321 12.9682 22.0896 12.6468C22.902 10.9885 23.3018 9.14129 23.3121 6.99954V6.99948C23.321 5.10735 22.5875 3.33023 21.247 1.99554C19.9381 0.692354 18.2117 -0.0145839 16.3835 0.000291079C15.3405 0.00941608 14.3393 0.247291 13.4081 0.707479C12.5132 1.14973 11.4866 1.14973 10.5916 0.707479C9.66033 0.247354 8.65926 0.00941608 7.61651 0.000353579C5.78714 -0.0162714 4.06158 0.692479 2.75276 1.9956C1.41226 3.33029 0.678827 5.10742 0.687702 6.9996C0.697952 9.14135 1.09783 10.9885 1.9102 12.6469C2.06758 12.9682 2.3942 13.1719 2.75208 13.1719Z" fill="#583FBC"/>
</svg>
