<svg width="34" height="40" viewBox="0 0 34 40" fill="none" xmlns="http://www.w3.org/2000/svg">
<path fill-rule="evenodd" clip-rule="evenodd" d="M0 16.6355C0 7.43578 7.68776 0 16.9869 0C26.3122 0 34 7.43578 34 16.6355C34 21.2714 32.314 25.5753 29.539 29.2232C26.4776 33.247 22.7043 36.7529 18.4571 39.5049C17.485 40.1408 16.6077 40.1888 15.5409 39.5049C11.2695 36.7529 7.49617 33.247 4.461 29.2232C1.68397 25.5753 0 21.2714 0 16.6355ZM11.3885 17.1535C11.3885 20.2354 13.9033 22.6593 16.9869 22.6593C20.0725 22.6593 22.6115 20.2354 22.6115 17.1535C22.6115 14.0956 20.0725 11.5537 16.9869 11.5537C13.9033 11.5537 11.3885 14.0956 11.3885 17.1535Z" fill="#200E32"/>
</svg>
