<svg width="32" height="32" viewBox="0 0 32 32" fill="none" xmlns="http://www.w3.org/2000/svg">
<g clip-path="url(#clip0_401_219)">
<path d="M30.6006 13.1243C30.0376 14.8152 29.7947 16.627 29.8955 18.4292C30.1748 23.5132 30.0647 27.3821 25.3167 30.5667C24.8513 30.8784 24.3098 31.0432 23.75 31.0432H19.6875C18.1367 31.0432 16.875 29.7815 16.875 28.2307V22.6641C16.875 22.134 16.4651 21.6609 15.9133 21.6667C15.4199 21.6765 15 22.105 15 22.6021V28.2307C15 29.7815 13.7383 31.0432 12.1875 31.0432H8.4375C7.90161 31.0432 7.37939 30.8911 6.92725 30.6033C1.97339 27.4497 1.64771 23.5786 1.98828 18.2854C2.09668 16.605 1.87134 14.8616 1.33521 13.1758C0.519531 13.8643 0 14.8933 0 16.0417V31.0432C0 31.561 0.419678 31.9807 0.9375 31.9807H31.0625C31.5803 31.9807 32 31.561 32 31.0432V16.0432C32 14.865 31.4531 13.8123 30.6006 13.1243Z" fill="#583FBC"/>
<path d="M3.85949 18.4057C3.53845 23.395 3.81872 26.4016 7.9342 29.0217C8.21716 29.2016 8.40124 29.1682 9.10168 29.1682C8.56286 26.8935 7.50012 22.0088 7.50012 18.8557C7.50012 17.3369 7.92883 15.8296 8.72106 14.5195C8.74914 13.8982 8.7633 11.6596 7.65759 10.001C7.37048 9.57004 7.48669 8.98801 7.9176 8.7009C8.34826 8.41355 8.93054 8.53 9.21765 8.96091C9.73132 9.73118 10.0587 10.5749 10.2655 11.3772C10.798 10.0901 11.2501 8.67209 11.2501 7.60569C11.2501 7.08811 11.6698 6.66819 12.1876 6.66819C12.7054 6.66819 13.1251 7.08811 13.1251 7.60569C13.1251 8.72263 12.7772 10.0285 12.3324 11.2422C12.8116 11.0114 13.3116 10.8247 13.826 10.6897C14.3268 10.5588 14.8395 10.8581 14.9706 11.3589C15.1019 11.8598 14.8024 12.3723 14.3016 12.5034C11.4469 13.2519 9.37512 15.9233 9.37512 18.8557C9.37512 21.9961 10.5604 27.2185 11.0309 29.1682H12.1876C12.7054 29.1682 13.1251 28.7485 13.1251 28.2307V22.602C13.1251 21.083 14.3607 19.8225 15.8795 19.792C17.4645 19.7634 18.7501 21.072 18.7501 22.664V28.2307C18.7501 28.7485 19.1698 29.1682 19.6876 29.1682H20.8444C21.3148 27.218 22.5001 21.9936 22.5001 18.8557C22.5001 16.0219 20.6932 13.521 18.0135 12.6281C17.5223 12.4643 17.2567 11.9336 17.4205 11.4421C17.5841 10.9511 18.1151 10.6853 18.6063 10.8491C18.8483 10.9299 19.0841 11.0217 19.3146 11.122C19.0189 9.65574 19.4037 8.64377 19.861 8.00022C20.1608 7.5781 20.7462 7.47922 21.1683 7.77903C21.5902 8.07883 21.6893 8.66404 21.3895 9.08616C20.8846 9.79661 21.0751 10.8237 21.4869 11.7873C21.7482 11.2575 22.1024 10.6865 22.5809 10.1426C22.923 9.75388 23.5153 9.71579 23.9042 10.0578C24.2928 10.3999 24.3307 10.9922 23.9886 11.3811C23.1937 12.2849 22.8522 13.3049 22.7194 13.8315C23.8251 15.3257 24.3751 17.0888 24.3751 18.8557C24.3751 22.0088 23.3124 26.8935 22.7736 29.1682C23.7743 29.1682 23.9679 29.2136 24.2723 29.0093C26.1278 27.7649 27.1854 26.4219 27.7015 24.6543C28.9 20.5486 26.8307 16.989 29.3026 11.27C32.5145 3.83249 24.8973 -2.79031 18.1505 1.20115C16.8048 1.99656 15.1329 1.9968 13.7875 1.20139C7.08019 -2.76663 -0.522344 3.75608 2.59997 11.1863C3.57824 13.5173 4.01379 16.0136 3.85949 18.4057Z" fill="#583FBC"/>
</g>
<defs>
<clipPath id="clip0_401_219">
<rect width="32" height="32" fill="white"/>
</clipPath>
</defs>
</svg>
