<svg width="40" height="40" viewBox="0 0 40 40" fill="none" xmlns="http://www.w3.org/2000/svg">
<path fill-rule="evenodd" clip-rule="evenodd" d="M19.5468 36.5228C19.7313 36.6192 19.9377 36.6683 20.1441 36.6666C20.3505 36.665 20.5552 36.6143 20.7414 36.5163L26.6879 33.3375C28.3742 32.4386 29.6947 31.4335 30.7249 30.2633C32.9649 27.7137 34.1881 24.4597 34.1663 21.1044L34.0958 10.0367C34.0891 8.76189 33.2518 7.62439 32.0135 7.2109L20.9512 3.49931C20.285 3.27378 19.5552 3.27868 18.9008 3.51075L7.88036 7.35472C6.64878 7.78456 5.82661 8.93023 5.83332 10.2066L5.90379 21.2662C5.92561 24.6264 7.19074 27.8657 9.46765 30.3891C10.5079 31.543 11.8402 32.5334 13.5449 33.4176L19.5468 36.5228ZM17.9726 23.5149C18.221 23.7536 18.5431 23.8712 18.8653 23.868C19.1874 23.8663 19.5079 23.7454 19.7529 23.5035L26.2514 17.0969C26.7396 16.6148 26.7346 15.8401 26.2413 15.3645C25.7463 14.8889 24.9493 14.8922 24.4611 15.3743L18.8468 20.9082L16.5481 18.6985C16.0531 18.223 15.2578 18.2279 14.7678 18.71C14.2796 19.1921 14.2846 19.9668 14.7796 20.4424L17.9726 23.5149Z" fill="#583FBC"/>
</svg>
