<svg width="32" height="32" viewBox="0 0 32 32" fill="none" xmlns="http://www.w3.org/2000/svg">
<g clip-path="url(#clip0_401_208)">
<path d="M28.2906 31.8532C29.5289 30.3337 29.4147 27.3308 29.4135 27.2993C29.4129 26.1782 29.0952 24.8565 28.8294 23.9399C28.5317 22.9141 28.7254 21.8187 29.362 20.9341C29.4255 20.8462 29.4871 20.7558 29.546 20.6667C30.4003 19.3775 30.8512 17.8318 30.8512 16.1947V15.3003C30.8512 12.7431 27.2625 12.7025 27.1088 12.702C25.918 12.7026 24.7065 13.0637 23.7556 13.7917C23.6459 13.8757 23.539 13.9649 23.4168 14.03C23.3608 14.0597 23.3013 14.0849 23.2482 14.1197C23.0277 14.2637 22.8453 14.5214 22.6488 14.7003C22.4076 14.9191 22.1533 15.1254 21.8842 15.3094C21.3328 15.686 20.687 16.0015 20.0053 16.0015C19.6899 16.0015 19.4339 15.7461 19.4339 15.43C19.4339 15.114 19.6899 14.8586 20.0053 14.8586C20.7379 14.8586 21.6625 14.0826 22.1996 13.5403C21.9682 13.3968 21.6699 13.2363 21.3053 13.094C20.2195 12.6705 19.0092 12.6002 17.8766 12.8688C16.9652 13.0848 15.9863 13.5294 15.6154 14.4551C15.5171 14.7008 15.4606 14.9808 15.4606 15.3008V16.1956C15.4606 17.343 15.6857 18.4917 16.1503 19.5425C16.4543 20.2294 16.9326 20.8197 17.2583 21.4951C17.6275 22.2591 17.7195 23.1214 17.4818 23.9409C17.2155 24.8575 16.8984 26.1792 16.8984 27.2753C16.8966 27.3307 16.7829 30.3347 18.0207 31.8542C18.6087 29.8742 20.4344 24.5906 23.1556 24.5906C25.8769 24.5906 27.7026 29.8731 28.2906 31.8532Z" fill="#583FBC"/>
<path d="M14.8478 19.3472C14.4376 18.1746 14.2758 16.8928 14.2982 15.6551C14.3095 15.0174 14.3781 14.3654 14.6559 13.7917C15.1039 12.8671 16.0405 12.2653 17.0125 11.9317C19.0366 11.2374 21.416 11.5339 23.1561 12.8025C23.2458 12.7368 23.3543 12.6642 23.4732 12.5894C23.491 12.578 23.5115 12.5665 23.5304 12.5551C23.9658 12.2871 24.4321 12.0762 24.9161 11.9139C24.9572 11.9002 24.9915 11.8842 25.0337 11.8711C25.8578 10.0808 26.2921 8.06533 26.2921 6.02356V4.57148C26.2921 0.0639791 20.2623 0.00051389 20.0057 0C16.4296 0 14.2918 1.95946 14.1382 2.10515C13.7587 2.5566 11.021 5.71437 8.57745 5.71437C8.262 5.71437 8.006 5.45897 8.006 5.14292C8.006 4.82688 8.262 4.57148 8.57745 4.57148C10.0095 4.57148 11.9295 2.82459 12.9032 1.77489C12.1095 1.17544 10.2009 0 7.43456 0C7.17855 0.000599538 1.14874 0.0639791 1.14874 4.57148V6.02347C1.14874 8.75154 1.88643 11.3304 3.28139 13.4796C3.378 13.6287 3.47855 13.7773 3.58312 13.9259C4.52997 15.2699 4.81911 16.9328 4.37683 18.4871C3.94713 19.9974 3.43452 22.1797 3.43452 23.9998C3.4317 24.0792 3.22768 29.4998 5.56374 31.9645C5.59406 31.9959 5.63235 32.0068 5.67748 31.9959C5.70549 31.9884 5.75465 31.9679 5.77178 31.9061C6.55581 29.113 9.44558 19.9996 13.7205 19.9996C14.2525 19.9996 14.781 20.1402 15.3039 20.4203C15.2891 20.3905 15.2787 20.358 15.2645 20.3283C15.1262 20.0477 15 19.7609 14.8914 19.4654C14.8759 19.4267 14.8615 19.3872 14.8478 19.3472Z" fill="#583FBC"/>
</g>
<defs>
<clipPath id="clip0_401_208">
<rect width="32" height="32" fill="white"/>
</clipPath>
</defs>
</svg>
